<svg xmlns="http://www.w3.org/2000/svg" viewBox="0 0 1200 300" role="img" aria-label="AllocSignal - put the next budget where it works hardest">
  <defs>
    <linearGradient id="paper" x1="0" y1="0" x2="1" y2="1">
      <stop offset="0" stop-color="#F8F5ED"/>
      <stop offset="1" stop-color="#EEF2EC"/>
    </linearGradient>
    <filter id="shadow" x="-20%" y="-20%" width="140%" height="140%">
      <feDropShadow dx="0" dy="12" stdDeviation="14" flood-color="#102C2A" flood-opacity=".14"/>
    </filter>
  </defs>
  <rect width="1200" height="300" rx="32" fill="url(#paper)"/>
  <circle cx="1110" cy="-20" r="190" fill="#D95B40" opacity=".11"/>
  <circle cx="1135" cy="290" r="150" fill="#83D2B4" opacity=".20"/>
  <path d="M930 229C984 229 970 136 1120 91" fill="none" stroke="#173C3A" stroke-width="7" stroke-linecap="round" opacity=".18"/>
  <path d="M961 230V204M1014 230V174M1067 230V135" fill="none" stroke="#D95B40" stroke-width="12" stroke-linecap="round" opacity=".18"/>
  <g transform="translate(75 72) scale(1.22)" filter="url(#shadow)">
    <rect width="128" height="128" rx="30" fill="#173C3A"/>
    <path d="M18 101C35 101 38 91 45 75C54 53 68 38 108 30" fill="none" stroke="#83D2B4" stroke-width="8" stroke-linecap="round"/>
    <path d="M27 101V87M52 101V70M77 101V52" fill="none" stroke="#F8F5ED" stroke-width="8" stroke-linecap="round"/>
    <circle cx="103" cy="31" r="10" fill="#D95B40"/>
    <circle cx="77" cy="51" r="6" fill="#F2C66D"/>
  </g>
  <text x="275" y="132" font-family="Arial, Helvetica, sans-serif" font-size="70" font-weight="800" fill="#17322E" letter-spacing="-3">Alloc<tspan fill="#D95B40">Signal</tspan></text>
  <text x="280" y="185" font-family="Arial, Helvetica, sans-serif" font-size="24" font-weight="600" fill="#47645E">Put the next budget where it works hardest.</text>
  <text x="280" y="224" font-family="Arial, Helvetica, sans-serif" font-size="16" font-weight="700" fill="#6B7F7A" letter-spacing="2">LOCAL-FIRST  ·  CONSTRAINT-AWARE  ·  OPEN SOURCE</text>
</svg>
